<?xml version="1.0" encoding="utf-8"?>
<!DOCTYPE svg PUBLIC "-//W3C//DTD SVG 1.1//EN" "http://www.w3.org/Graphics/SVG/1.1/DTD/svg11.dtd">
<svg style="position: absolute; width: 0; height: 0;" width="0" height="0" version="1.1" xmlns="http://www.w3.org/2000/svg" xmlns:xlink="http://www.w3.org/1999/xlink">
    <defs>
        <symbol id="arrow-down" xmlns="http://www.w3.org/2000/svg" viewBox="0 0 330 330"><path d="M325.607 79.393c-5.857-5.857-15.355-5.858-21.213.001l-139.39 139.393L25.607 79.393c-5.857-5.857-15.355-5.858-21.213.001-5.858 5.858-5.858 15.355 0 21.213l150.004 150a14.999 14.999 0 0021.212-.001l149.996-150c5.859-5.857 5.859-15.355.001-21.213z" /></symbol>
        <symbol id="arrow-left" xmlns="http://www.w3.org/2000/svg" viewBox="0 0 7 12"><path d="M6.381.206a.41.41 0 00-.59-.008L.378 5.615a.44.44 0 00-.01.608l5.25 5.575a.41.41 0 00.591.01.44.44 0 00.01-.61l-4.96-5.266L6.373.815A.44.44 0 006.38.206z" /></symbol>
        <symbol id="arrow-right" xmlns="http://www.w3.org/2000/svg" viewBox="0 0 792.033 792.033"><path d="M617.858 370.896L221.513 9.705c-13.006-12.94-34.099-12.94-47.105 0-13.006 12.939-13.006 33.934 0 46.874l372.447 339.438-372.414 339.437c-13.006 12.94-13.006 33.935 0 46.874s34.099 12.939 47.104 0l396.346-361.191c6.932-6.898 9.904-16.043 9.441-25.087.431-9.078-2.54-18.222-9.474-25.154z" /></symbol>
        <symbol id="arrow-up-square" xmlns="http://www.w3.org/2000/svg" viewBox="0 0 20 20"><path d="M10.4 6.4c-.2-.2-.4-.2-.6 0l-5.6 5.2c-.2.2-.2.4 0 .6s.4.2.6 0l5.3-5 5.1 5.1c.2.2.4.2.6.1.2-.2.2-.4 0-.6l-5.4-5.4z" /><path d="M17 0H3C1.3 0 0 1.3 0 3v14c0 1.7 1.3 3 3 3h14c1.7 0 3-1.3 3-3V3c0-1.7-1.3-3-3-3zm2.2 17c0 1.2-1 2.2-2.2 2.2H3c-1.2 0-2.2-1-2.2-2.2V3C.8 1.8 1.8.8 3 .8h14c1.2 0 2.2 1 2.2 2.2v14z" /></symbol>
        <symbol id="arrow-up" xmlns="http://www.w3.org/2000/svg" viewBox="0 0 12 7"><path fill-rule="evenodd" clip-rule="evenodd" d="M11.794 6.381a.41.41 0 00.008-.59L6.385.378a.44.44 0 00-.608-.01L.202 5.619a.41.41 0 00-.01.591.44.44 0 00.61.01l5.266-4.96 5.117 5.114a.44.44 0 00.609.008z" /></symbol>
        <symbol id="arrow-left-square" xmlns="http://www.w3.org/2000/svg" viewBox="0 0 20 20"><path d="M11.8 4.2 6.4 9.6c-.2.2-.2.4 0 .6l5.2 5.6c.2.2.4.2.6 0 .2-.2.2-.4 0-.6l-5-5.3 5.1-5.1c.2-.2.2-.4 0-.6-.1-.2-.3-.2-.5 0z"/><path d="M17 0H3C1.3 0 0 1.3 0 3v14c0 1.7 1.3 3 3 3h14c1.7 0 3-1.3 3-3V3c0-1.7-1.3-3-3-3zm2.2 17c0 1.2-1 2.2-2.2 2.2H3c-1.2 0-2.2-1-2.2-2.2V3C.8 1.8 1.8.8 3 .8h14c1.2 0 2.2 1 2.2 2.2v14z"/></symbol>
        <symbol id="arrow-right-square" xmlns="http://www.w3.org/2000/svg" viewBox="0 0 20 20"><path d="M8.4 4.2c-.2-.2-.4-.2-.6 0s-.2.4 0 .6l5 5.3-5.1 5.1c-.2.2-.2.4 0 .6.1.2.3.2.5 0l5.4-5.4c.2-.2.2-.4 0-.6L8.4 4.2z"/><path d="M17 0H3C1.3 0 0 1.3 0 3v14c0 1.7 1.3 3 3 3h14c1.7 0 3-1.3 3-3V3c0-1.7-1.3-3-3-3zm2.2 17c0 1.2-1 2.2-2.2 2.2H3c-1.2 0-2.2-1-2.2-2.2V3C.8 1.8 1.8.8 3 .8h14c1.2 0 2.2 1 2.2 2.2v14z"/></symbol>
        <symbol id="close" xmlns="http://www.w3.org/2000/svg" viewBox="0 0 16 16"><path d="M.195.195c.26-.26.683-.26.943 0L8 7.057 14.862.195a.667.667 0 11.943.943L8.943 8l6.862 6.862a.667.667 0 11-.943.943L8 8.943l-6.862 6.862a.667.667 0 11-.943-.943L7.057 8 .195 1.138a.667.667 0 010-.943z" /></symbol>
        <symbol id="more" xmlns="http://www.w3.org/2000/svg" viewBox="0 0 24 24"><path d="M19 11h-6V5a1 1 0 0 0-2 0v6H5a1 1 0 0 0 0 2h6v6a1 1 0 0 0 2 0v-6h6a1 1 0 0 0 0-2z"/></symbol>
        <symbol id="file" xmlns="http://www.w3.org/2000/svg" viewBox="0 0 511 511" xml:space="preserve"><path d="M454.962 110.751c-.018-.185-.05-.365-.081-.545-.011-.06-.016-.122-.028-.182a7.298 7.298 0 0 0-.159-.632c-.007-.025-.012-.052-.02-.077a7.357 7.357 0 0 0-.224-.625l-.023-.064a7.61 7.61 0 0 0-.269-.57c-.016-.031-.029-.063-.045-.094a7.977 7.977 0 0 0-.301-.504c-.027-.042-.05-.086-.077-.127a7.546 7.546 0 0 0-.33-.446c-.037-.048-.07-.098-.109-.145a7.864 7.864 0 0 0-.45-.498l-.042-.046-104-104c-.018-.018-.038-.033-.057-.051a7.503 7.503 0 0 0-.486-.44c-.055-.045-.113-.083-.169-.126-.138-.107-.275-.214-.42-.311-.051-.034-.105-.062-.156-.095a7.352 7.352 0 0 0-.475-.284c-.036-.019-.074-.035-.111-.053a7.79 7.79 0 0 0-.554-.262c-.024-.01-.049-.017-.074-.027a7.637 7.637 0 0 0-.616-.221l-.081-.021a7.686 7.686 0 0 0-.628-.158c-.063-.013-.128-.018-.192-.029a7.203 7.203 0 0 0-.536-.08A7.468 7.468 0 0 0 343.5 0h-248C73.72 0 56 17.72 56 39.5v432c0 21.78 17.72 39.5 39.5 39.5h320c21.78 0 39.5-17.72 39.5-39.5v-360c0-.251-.013-.501-.038-.749zM351 25.606 429.394 104H375.5c-13.509 0-24.5-10.99-24.5-24.5V25.606zM415.5 496h-320C81.991 496 71 485.01 71 471.5v-432C71 25.99 81.991 15 95.5 15H336v64.5c0 21.78 17.72 39.5 39.5 39.5H440v352.5c0 13.51-10.991 24.5-24.5 24.5z"/></symbol>
        <symbol id="folder" xmlns="http://www.w3.org/2000/svg" viewBox="0 0 463 463"><path d="M431.5 80H314.784l-30.202-32.718C275.618 37.57 262.896 32 249.679 32H31.5C14.131 32 0 46.131 0 63.5v336C0 416.869 14.131 431 31.5 431h400c17.369 0 31.5-14.131 31.5-31.5v-288c0-17.369-14.131-31.5-31.5-31.5zM273.56 57.456 294.37 80h-27.586l-30.202-32.718c-.089-.096-.184-.186-.274-.282h13.371a32.59 32.59 0 0 1 23.881 10.456zM201.679 47a32.59 32.59 0 0 1 23.881 10.456L246.37 80h-31.279L184.89 47.282c-.089-.096-.184-.186-.274-.282h17.063zM31.5 47h118.487a32.59 32.59 0 0 1 23.881 10.456L194.678 80H31.5A31.31 31.31 0 0 0 15 84.681V63.5C15 54.402 22.402 47 31.5 47zM448 399.5c0 9.098-7.402 16.5-16.5 16.5h-400c-9.098 0-16.5-7.402-16.5-16.5v-288c0-9.098 7.402-16.5 16.5-16.5h400c9.098 0 16.5 7.402 16.5 16.5v288z"/><path d="M399.5 128h-112c-8.547 0-15.5 6.953-15.5 15.5v80c0 8.547 6.953 15.5 15.5 15.5h112c8.547 0 15.5-6.953 15.5-15.5v-80c0-8.547-6.953-15.5-15.5-15.5zm.5 95.5a.5.5 0 0 1-.5.5h-112a.5.5 0 0 1-.5-.5v-80a.5.5 0 0 1 .5-.5h112a.5.5 0 0 1 .5.5v80z"/><path d="M375.5 160h-64a7.5 7.5 0 0 0 0 15h64a7.5 7.5 0 0 0 0-15zM375.5 192h-64a7.5 7.5 0 0 0 0 15h64a7.5 7.5 0 0 0 0-15z"/></symbol>
        <symbol id="hamburger" xmlns="http://www.w3.org/2000/svg" viewBox="0 0 24 24"><path d="M22 13c0 1.11-.89 2-2 2H4a2 2 0 1 1 0-4h9l2.5 2 2.5-2h2a2 2 0 0 1 2 2M12 3C3 3 3 9 3 9h18s0-6-9-6M3 18c0 1.66 1.34 3 3 3h12c1.66 0 3-1.34 3-3v-1H3v1Z"/></symbol>
        <symbol id="hamburger-remove" xmlns="http://www.w3.org/2000/svg" viewBox="0 0 24 24"><path d="M21 9H3s0-6 9-6 9 6 9 6m-7.65 8H3v1c0 1.66 1.34 3 3 3h7.35c-.22-.63-.35-1.3-.35-2s.13-1.37.35-2m8.51-3.27A2 2 0 0 0 20 11h-9l-2.5 2L6 11H4c-1.1 0-2 .9-2 2s.9 2 2 2h10.54c1.1-1.22 2.69-2 4.46-2 1.04 0 2 .26 2.86.73m.68 3.15-1.42-1.41L19 17.59l-2.12-2.12-1.41 1.41L17.59 19l-2.12 2.12 1.41 1.42L19 20.41l2.12 2.13 1.42-1.42L20.41 19l2.13-2.12Z"/></symbol>
        <symbol id="heart" viewBox="0 0 24 24" xmlns="http://www.w3.org/2000/svg"><path d="m12 21.35-1.45-1.32C5.4 15.36 2 12.27 2 8.5 2 5.41 4.42 3 7.5 3c1.74 0 3.41.81 4.5 2.08C13.09 3.81 14.76 3 16.5 3 19.58 3 22 5.41 22 8.5c0 3.77-3.4 6.86-8.55 11.53L12 21.35Z"/></symbol>
        <symbol id="spinner" xmlns="http://www.w3.org/2000/svg" viewBox="-2 0 25 20"><circle cx="10" cy="10" r="10" /></symbol>
    </defs>
</svg>
