<?xml version="1.0" encoding="utf-8"?>
<!DOCTYPE svg PUBLIC "-//W3C//DTD SVG 1.1//EN" "http://www.w3.org/Graphics/SVG/1.1/DTD/svg11.dtd">
<svg style="position: absolute; width: 0; height: 0;" width="0" height="0" version="1.1" xmlns="http://www.w3.org/2000/svg" xmlns:xlink="http://www.w3.org/1999/xlink">
    <defs>
        <symbol id="alert" xmlns="http://www.w3.org/2000/svg" viewBox="0 0 24 24"><path d="M13 14h-2V9h2m0 9h-2v-2h2M1 21h22L12 2 1 21Z"/></symbol>
        <symbol id="alert-circle" xmlns="http://www.w3.org/2000/svg" viewBox="0 0 24 24"><path d="M13 13h-2V7h2m0 10h-2v-2h2M12 2A10 10 0 0 0 2 12a10 10 0 0 0 10 10 10 10 0 0 0 10-10A10 10 0 0 0 12 2Z"/></symbol>
        <symbol id="arrow-down" xmlns="http://www.w3.org/2000/svg" viewBox="0 0 330 330"><path d="M325.607 79.393c-5.857-5.857-15.355-5.858-21.213.001l-139.39 139.393L25.607 79.393c-5.857-5.857-15.355-5.858-21.213.001-5.858 5.858-5.858 15.355 0 21.213l150.004 150a14.999 14.999 0 0021.212-.001l149.996-150c5.859-5.857 5.859-15.355.001-21.213z" /></symbol>
        <symbol id="arrow-left" xmlns="http://www.w3.org/2000/svg" viewBox="0 0 7 12"><path d="M6.381.206a.41.41 0 00-.59-.008L.378 5.615a.44.44 0 00-.01.608l5.25 5.575a.41.41 0 00.591.01.44.44 0 00.01-.61l-4.96-5.266L6.373.815A.44.44 0 006.38.206z" /></symbol>
        <symbol id="arrow-left-square" xmlns="http://www.w3.org/2000/svg" viewBox="0 0 20 20"><path d="M11.8 4.2 6.4 9.6c-.2.2-.2.4 0 .6l5.2 5.6c.2.2.4.2.6 0 .2-.2.2-.4 0-.6l-5-5.3 5.1-5.1c.2-.2.2-.4 0-.6-.1-.2-.3-.2-.5 0z"/><path d="M17 0H3C1.3 0 0 1.3 0 3v14c0 1.7 1.3 3 3 3h14c1.7 0 3-1.3 3-3V3c0-1.7-1.3-3-3-3zm2.2 17c0 1.2-1 2.2-2.2 2.2H3c-1.2 0-2.2-1-2.2-2.2V3C.8 1.8 1.8.8 3 .8h14c1.2 0 2.2 1 2.2 2.2v14z"/></symbol>
        <symbol id="arrow-right" xmlns="http://www.w3.org/2000/svg" viewBox="0 0 792.033 792.033"><path d="M617.858 370.896L221.513 9.705c-13.006-12.94-34.099-12.94-47.105 0-13.006 12.939-13.006 33.934 0 46.874l372.447 339.438-372.414 339.437c-13.006 12.94-13.006 33.935 0 46.874s34.099 12.939 47.104 0l396.346-361.191c6.932-6.898 9.904-16.043 9.441-25.087.431-9.078-2.54-18.222-9.474-25.154z" /></symbol>
        <symbol id="arrow-right-square" xmlns="http://www.w3.org/2000/svg" viewBox="0 0 20 20"><path d="M8.4 4.2c-.2-.2-.4-.2-.6 0s-.2.4 0 .6l5 5.3-5.1 5.1c-.2.2-.2.4 0 .6.1.2.3.2.5 0l5.4-5.4c.2-.2.2-.4 0-.6L8.4 4.2z"/><path d="M17 0H3C1.3 0 0 1.3 0 3v14c0 1.7 1.3 3 3 3h14c1.7 0 3-1.3 3-3V3c0-1.7-1.3-3-3-3zm2.2 17c0 1.2-1 2.2-2.2 2.2H3c-1.2 0-2.2-1-2.2-2.2V3C.8 1.8 1.8.8 3 .8h14c1.2 0 2.2 1 2.2 2.2v14z"/></symbol>
        <symbol id="arrow-up" xmlns="http://www.w3.org/2000/svg" viewBox="0 0 12 7"><path fill-rule="evenodd" clip-rule="evenodd" d="M11.794 6.381a.41.41 0 00.008-.59L6.385.378a.44.44 0 00-.608-.01L.202 5.619a.41.41 0 00-.01.591.44.44 0 00.61.01l5.266-4.96 5.117 5.114a.44.44 0 00.609.008z" /></symbol>
        <symbol id="arrow-up-square" xmlns="http://www.w3.org/2000/svg" viewBox="0 0 20 20"><path d="M10.4 6.4c-.2-.2-.4-.2-.6 0l-5.6 5.2c-.2.2-.2.4 0 .6s.4.2.6 0l5.3-5 5.1 5.1c.2.2.4.2.6.1.2-.2.2-.4 0-.6l-5.4-5.4z" /><path d="M17 0H3C1.3 0 0 1.3 0 3v14c0 1.7 1.3 3 3 3h14c1.7 0 3-1.3 3-3V3c0-1.7-1.3-3-3-3zm2.2 17c0 1.2-1 2.2-2.2 2.2H3c-1.2 0-2.2-1-2.2-2.2V3C.8 1.8 1.8.8 3 .8h14c1.2 0 2.2 1 2.2 2.2v14z" /></symbol>
        <symbol id="card-account-details" xmlns="http://www.w3.org/2000/svg" viewBox="0 0 24 24"><path d="M2 3h20c1.05 0 2 .95 2 2v14c0 1.05-.95 2-2 2H2c-1.05 0-2-.95-2-2V5c0-1.05.95-2 2-2m12 3v1h8V6h-8m0 2v1h8V8h-8m0 2v1h7v-1h-7m-6 3.91C6 13.91 2 15 2 17v1h12v-1c0-2-4-3.09-6-3.09M8 6a3 3 0 0 0-3 3 3 3 0 0 0 3 3 3 3 0 0 0 3-3 3 3 0 0 0-3-3Z"/></symbol>
        <symbol id="check-circle" xmlns="http://www.w3.org/2000/svg" viewBox="0 0 24 24"><path d="M12 2C6.5 2 2 6.5 2 12s4.5 10 10 10 10-4.5 10-10S17.5 2 12 2m-2 15-5-5 1.41-1.41L10 14.17l7.59-7.59L19 8l-9 9Z"/></symbol>
        <symbol id="close" xmlns="http://www.w3.org/2000/svg" viewBox="0 0 16 16"><path d="M.195.195c.26-.26.683-.26.943 0L8 7.057 14.862.195a.667.667 0 11.943.943L8.943 8l6.862 6.862a.667.667 0 11-.943.943L8 8.943l-6.862 6.862a.667.667 0 11-.943-.943L7.057 8 .195 1.138a.667.667 0 010-.943z" /></symbol>
        <symbol id="close-circle" xmlns="http://www.w3.org/2000/svg" viewBox="0 0 24 24"><path d="M12 2c5.53 0 10 4.47 10 10s-4.47 10-10 10S2 17.53 2 12 6.47 2 12 2m3.59 5L12 10.59 8.41 7 7 8.41 10.59 12 7 15.59 8.41 17 12 13.41 15.59 17 17 15.59 13.41 12 17 8.41 15.59 7Z"/></symbol>
        <symbol id="dribble" xmlns="http://www.w3.org/2000/svg" viewBox="0 0 24 24"><path d="M2.34 14.63c.6-.22 1.22-.33 1.88-.33 1.34 0 2.51.42 3.51 1.26L4.59 18.7a10.61 10.61 0 0 1-2.25-4.07M15.56 9.8c1.97 1.47 4.1 1.83 6.38 1.08.03.21.06.59.06 1.12 0 1.03-.25 2.18-.72 3.45-.47 1.26-1.05 2.28-1.73 3.05l-6.33-6.31 2.34-2.39m-6.79 6.84c1.06 1.53 1.28 3.2.65 5.02-1.42-.41-2.69-1.05-3.75-1.93l3.1-3.09m3.42-3.42 6.31 6.33c-2.17 1.9-4.72 2.7-7.62 2.39.21-.66.32-1.38.32-2.16 0-.62-.14-1.35-.42-2.18-.28-.83-.61-1.51-.98-2.04l2.39-2.34M8.81 14.5a6.695 6.695 0 0 0-3.23-1.59c-1.22-.23-2.39-.16-3.52.22-.03-.22-.06-.6-.06-1.13 0-1.03.25-2.18.72-3.45.47-1.26 1.05-2.28 1.73-3.05l6.66 6.69-2.3 2.31m6.75-6.77c-1.34-1.65-1.65-3.45-.93-5.39.62.16 1.33.46 2.13.92.79.45 1.44.9 1.94 1.33l-3.14 3.14m6.1 1.65c-.6.21-1.22.32-1.88.32-1.09 0-2.14-.32-3.14-.98l3.09-3.05c.88 1.1 1.52 2.33 1.93 3.71m-9.47 1.73L5.5 4.45c2.17-1.9 4.72-2.7 7.63-2.39-.22.66-.33 1.38-.33 2.16 0 .72.16 1.53.49 2.44.33.9.71 1.62 1.21 2.15l-2.31 2.3Z"/></symbol>
        <symbol id="facebook" xmlns="http://www.w3.org/2000/svg" viewBox="0 0 24 24"><path d="M12 2.04c-5.5 0-10 4.49-10 10.02 0 5 3.66 9.15 8.44 9.9v-7H7.9v-2.9h2.54V9.85c0-2.51 1.49-3.89 3.78-3.89 1.09 0 2.23.19 2.23.19v2.47h-1.26c-1.24 0-1.63.77-1.63 1.56v1.88h2.78l-.45 2.9h-2.33v7a10 10 0 0 0 8.44-9.9c0-5.53-4.5-10.02-10-10.02Z"/></symbol>
        <symbol id="file" xmlns="http://www.w3.org/2000/svg" viewBox="0 0 511 511" xml:space="preserve"><path d="M454.962 110.751c-.018-.185-.05-.365-.081-.545-.011-.06-.016-.122-.028-.182a7.298 7.298 0 0 0-.159-.632c-.007-.025-.012-.052-.02-.077a7.357 7.357 0 0 0-.224-.625l-.023-.064a7.61 7.61 0 0 0-.269-.57c-.016-.031-.029-.063-.045-.094a7.977 7.977 0 0 0-.301-.504c-.027-.042-.05-.086-.077-.127a7.546 7.546 0 0 0-.33-.446c-.037-.048-.07-.098-.109-.145a7.864 7.864 0 0 0-.45-.498l-.042-.046-104-104c-.018-.018-.038-.033-.057-.051a7.503 7.503 0 0 0-.486-.44c-.055-.045-.113-.083-.169-.126-.138-.107-.275-.214-.42-.311-.051-.034-.105-.062-.156-.095a7.352 7.352 0 0 0-.475-.284c-.036-.019-.074-.035-.111-.053a7.79 7.79 0 0 0-.554-.262c-.024-.01-.049-.017-.074-.027a7.637 7.637 0 0 0-.616-.221l-.081-.021a7.686 7.686 0 0 0-.628-.158c-.063-.013-.128-.018-.192-.029a7.203 7.203 0 0 0-.536-.08A7.468 7.468 0 0 0 343.5 0h-248C73.72 0 56 17.72 56 39.5v432c0 21.78 17.72 39.5 39.5 39.5h320c21.78 0 39.5-17.72 39.5-39.5v-360c0-.251-.013-.501-.038-.749zM351 25.606 429.394 104H375.5c-13.509 0-24.5-10.99-24.5-24.5V25.606zM415.5 496h-320C81.991 496 71 485.01 71 471.5v-432C71 25.99 81.991 15 95.5 15H336v64.5c0 21.78 17.72 39.5 39.5 39.5H440v352.5c0 13.51-10.991 24.5-24.5 24.5z"/></symbol>
        <symbol id="folder" xmlns="http://www.w3.org/2000/svg" viewBox="0 0 463 463"><path d="M431.5 80H314.784l-30.202-32.718C275.618 37.57 262.896 32 249.679 32H31.5C14.131 32 0 46.131 0 63.5v336C0 416.869 14.131 431 31.5 431h400c17.369 0 31.5-14.131 31.5-31.5v-288c0-17.369-14.131-31.5-31.5-31.5zM273.56 57.456 294.37 80h-27.586l-30.202-32.718c-.089-.096-.184-.186-.274-.282h13.371a32.59 32.59 0 0 1 23.881 10.456zM201.679 47a32.59 32.59 0 0 1 23.881 10.456L246.37 80h-31.279L184.89 47.282c-.089-.096-.184-.186-.274-.282h17.063zM31.5 47h118.487a32.59 32.59 0 0 1 23.881 10.456L194.678 80H31.5A31.31 31.31 0 0 0 15 84.681V63.5C15 54.402 22.402 47 31.5 47zM448 399.5c0 9.098-7.402 16.5-16.5 16.5h-400c-9.098 0-16.5-7.402-16.5-16.5v-288c0-9.098 7.402-16.5 16.5-16.5h400c9.098 0 16.5 7.402 16.5 16.5v288z"/><path d="M399.5 128h-112c-8.547 0-15.5 6.953-15.5 15.5v80c0 8.547 6.953 15.5 15.5 15.5h112c8.547 0 15.5-6.953 15.5-15.5v-80c0-8.547-6.953-15.5-15.5-15.5zm.5 95.5a.5.5 0 0 1-.5.5h-112a.5.5 0 0 1-.5-.5v-80a.5.5 0 0 1 .5-.5h112a.5.5 0 0 1 .5.5v80z"/><path d="M375.5 160h-64a7.5 7.5 0 0 0 0 15h64a7.5 7.5 0 0 0 0-15zM375.5 192h-64a7.5 7.5 0 0 0 0 15h64a7.5 7.5 0 0 0 0-15z"/></symbol>
        <symbol id="hamburger" xmlns="http://www.w3.org/2000/svg" viewBox="0 0 24 24"><path d="M22 13c0 1.11-.89 2-2 2H4a2 2 0 1 1 0-4h9l2.5 2 2.5-2h2a2 2 0 0 1 2 2M12 3C3 3 3 9 3 9h18s0-6-9-6M3 18c0 1.66 1.34 3 3 3h12c1.66 0 3-1.34 3-3v-1H3v1Z"/></symbol>
        <symbol id="hamburger-remove" xmlns="http://www.w3.org/2000/svg" viewBox="0 0 24 24"><path d="M21 9H3s0-6 9-6 9 6 9 6m-7.65 8H3v1c0 1.66 1.34 3 3 3h7.35c-.22-.63-.35-1.3-.35-2s.13-1.37.35-2m8.51-3.27A2 2 0 0 0 20 11h-9l-2.5 2L6 11H4c-1.1 0-2 .9-2 2s.9 2 2 2h10.54c1.1-1.22 2.69-2 4.46-2 1.04 0 2 .26 2.86.73m.68 3.15-1.42-1.41L19 17.59l-2.12-2.12-1.41 1.41L17.59 19l-2.12 2.12 1.41 1.42L19 20.41l2.12 2.13 1.42-1.42L20.41 19l2.13-2.12Z"/></symbol>
        <symbol id="home" xmlns="http://www.w3.org/2000/svg" viewBox="0 0 24 24"><path d="M10 20v-6h4v6h5v-8h3L12 3 2 12h3v8h5Z"/></symbol>
        <symbol id="heart" viewBox="0 0 24 24" xmlns="http://www.w3.org/2000/svg"><path d="m12 21.35-1.45-1.32C5.4 15.36 2 12.27 2 8.5 2 5.41 4.42 3 7.5 3c1.74 0 3.41.81 4.5 2.08C13.09 3.81 14.76 3 16.5 3 19.58 3 22 5.41 22 8.5c0 3.77-3.4 6.86-8.55 11.53L12 21.35Z"/></symbol>
        <symbol id="information" xmlns="http://www.w3.org/2000/svg" viewBox="0 0 24 24"><path d="M13 9h-2V7h2m0 10h-2v-6h2m-1-9A10 10 0 0 0 2 12a10 10 0 0 0 10 10 10 10 0 0 0 10-10A10 10 0 0 0 12 2Z"/></symbol>
        <symbol id="instagram" xmlns="http://www.w3.org/2000/svg" viewBox="0 0 24 24"><path d="M7.8 2h8.4C19.4 2 22 4.6 22 7.8v8.4a5.8 5.8 0 0 1-5.8 5.8H7.8C4.6 22 2 19.4 2 16.2V7.8A5.8 5.8 0 0 1 7.8 2m-.2 2A3.6 3.6 0 0 0 4 7.6v8.8C4 18.39 5.61 20 7.6 20h8.8a3.6 3.6 0 0 0 3.6-3.6V7.6C20 5.61 18.39 4 16.4 4H7.6m9.65 1.5a1.25 1.25 0 0 1 1.25 1.25A1.25 1.25 0 0 1 17.25 8 1.25 1.25 0 0 1 16 6.75a1.25 1.25 0 0 1 1.25-1.25M12 7a5 5 0 0 1 5 5 5 5 0 0 1-5 5 5 5 0 0 1-5-5 5 5 0 0 1 5-5m0 2a3 3 0 0 0-3 3 3 3 0 0 0 3 3 3 3 0 0 0 3-3 3 3 0 0 0-3-3Z"/></symbol>
        <symbol id="linkedin" xmlns="http://www.w3.org/2000/svg" viewBox="0 0 24 24"><path d="M19 3a2 2 0 0 1 2 2v14a2 2 0 0 1-2 2H5a2 2 0 0 1-2-2V5a2 2 0 0 1 2-2h14m-.5 15.5v-5.3a3.26 3.26 0 0 0-3.26-3.26c-.85 0-1.84.52-2.32 1.3v-1.11h-2.79v8.37h2.79v-4.93c0-.77.62-1.4 1.39-1.4a1.4 1.4 0 0 1 1.4 1.4v4.93h2.79M6.88 8.56a1.68 1.68 0 0 0 1.68-1.68c0-.93-.75-1.69-1.68-1.69a1.69 1.69 0 0 0-1.69 1.69c0 .93.76 1.68 1.69 1.68m1.39 9.94v-8.37H5.5v8.37h2.77Z"/></symbol>
        <symbol id="more" xmlns="http://www.w3.org/2000/svg" viewBox="0 0 24 24"><path d="M19 11h-6V5a1 1 0 0 0-2 0v6H5a1 1 0 0 0 0 2h6v6a1 1 0 0 0 2 0v-6h6a1 1 0 0 0 0-2z"/></symbol>
        <symbol id="shopping" xmlns="http://www.w3.org/2000/svg" viewBox="0 0 24 24"><path d="M12 13a5 5 0 0 1-5-5h2a3 3 0 0 0 3 3 3 3 0 0 0 3-3h2a5 5 0 0 1-5 5m0-10a3 3 0 0 1 3 3H9a3 3 0 0 1 3-3m7 3h-2a5 5 0 0 0-5-5 5 5 0 0 0-5 5H5c-1.11 0-2 .89-2 2v12a2 2 0 0 0 2 2h14a2 2 0 0 0 2-2V8a2 2 0 0 0-2-2Z"/></symbol>
        <symbol id="spinner" xmlns="http://www.w3.org/2000/svg" viewBox="-2 0 25 20"><circle cx="10" cy="10" r="10" /></symbol>
        <symbol id="star" xmlns="http://www.w3.org/2000/svg" viewBox="0 0 24 24"><path d="M12 17.27 18.18 21l-1.64-7.03L22 9.24l-7.19-.62L12 2 9.19 8.62 2 9.24l5.45 4.73L5.82 21 12 17.27Z"/></symbol>
        <symbol id="star-half-full" xmlns="http://www.w3.org/2000/svg" viewBox="0 0 24 24"><path d="M12 15.4V6.1l1.71 4.03 4.38.37-3.32 2.89.99 4.28M22 9.24l-7.19-.61L12 2 9.19 8.63 2 9.24l5.45 4.73L5.82 21 12 17.27 18.18 21l-1.64-7.03L22 9.24Z"/></symbol>
        <symbol id="star-outline" xmlns="http://www.w3.org/2000/svg" viewBox="0 0 24 24"><path d="m12 15.39-3.76 2.27.99-4.28-3.32-2.88 4.38-.37L12 6.09l1.71 4.04 4.38.37-3.32 2.88.99 4.28M22 9.24l-7.19-.61L12 2 9.19 8.63 2 9.24l5.45 4.73L5.82 21 12 17.27 18.18 21l-1.64-7.03L22 9.24Z"/></symbol>
        <symbol id="x" xmlns="http://www.w3.org/2000/svg" viewBox="0 0 24 24"><path d="M9 7h2l1 2.5L13 7h2l-2 5 2 5h-2l-1-2.5-1 2.5H9l2-5-2-5m3-5a10 10 0 0 1 10 10 10 10 0 0 1-10 10A10 10 0 0 1 2 12 10 10 0 0 1 12 2m0 2a8 8 0 0 0-8 8 8 8 0 0 0 8 8 8 8 0 0 0 8-8 8 8 0 0 0-8-8Z"/></symbol>
    </defs>
</svg>
